<svg width="900" height="900" viewBox="0 0 900 900" fill="none" xmlns="http://www.w3.org/2000/svg">
<path d="M736.65 109H163.35C120.631 109 86 141.443 86 181.462V718.537C86 758.557 120.631 791 163.35 791H736.65C779.369 791 814 758.557 814 718.537V181.462C814 141.443 779.369 109 736.65 109Z" fill="#1C1B18"/>
<path d="M693.598 222H206.81C199.735 222 194 227.735 194 234.81V350.102C194 357.177 199.735 362.912 206.81 362.912H693.598C700.673 362.912 706.408 357.177 706.408 350.102V234.81C706.408 227.735 700.673 222 693.598 222Z" fill="white"/>
<path d="M248.495 325.08V257.707H283.557C288.402 257.707 292.429 258.624 295.637 260.457C298.911 262.225 301.366 264.745 303.003 268.019C304.705 271.227 305.556 275.058 305.556 279.51C305.556 283.962 304.672 287.858 302.905 291.197C301.202 294.471 298.682 297.024 295.342 298.858C292.003 300.691 287.911 301.608 283.066 301.608H263.129V325.08H248.495ZM263.129 289.626H281.102C284.179 289.626 286.536 288.742 288.173 286.974C289.875 285.206 290.726 282.751 290.726 279.608C290.726 277.447 290.366 275.647 289.646 274.206C288.926 272.766 287.846 271.653 286.405 270.867C285.03 270.082 283.262 269.689 281.102 269.689H263.129V289.626ZM346.772 326.259C339.635 326.259 333.481 324.982 328.308 322.428C323.136 319.875 319.175 316.012 316.425 310.839C313.675 305.667 312.3 299.185 312.3 291.394C312.3 283.471 313.675 276.956 316.425 271.849C319.175 266.677 323.136 262.847 328.308 260.359C333.481 257.805 339.635 256.528 346.772 256.528C354.04 256.528 360.227 257.805 365.334 260.359C370.507 262.847 374.468 266.677 377.218 271.849C379.968 276.956 381.343 283.471 381.343 291.394C381.343 299.185 379.968 305.667 377.218 310.839C374.468 316.012 370.507 319.875 365.334 322.428C360.227 324.982 354.04 326.259 346.772 326.259ZM346.772 314.277C349.98 314.277 352.796 313.818 355.218 312.902C357.641 311.985 359.671 310.61 361.308 308.777C362.944 306.944 364.188 304.718 365.04 302.099C365.891 299.414 366.316 296.37 366.316 292.965V289.92C366.316 286.45 365.891 283.373 365.04 280.688C364.188 278.004 362.944 275.778 361.308 274.01C359.671 272.177 357.641 270.802 355.218 269.885C352.796 268.969 349.98 268.51 346.772 268.51C343.629 268.51 340.847 268.969 338.424 269.885C336.002 270.802 333.972 272.177 332.335 274.01C330.698 275.778 329.454 278.004 328.603 280.688C327.817 283.373 327.425 286.45 327.425 289.92V292.965C327.425 296.37 327.817 299.414 328.603 302.099C329.454 304.718 330.698 306.944 332.335 308.777C333.972 310.61 336.002 311.985 338.424 312.902C340.847 313.818 343.629 314.277 346.772 314.277ZM423.374 326.259C416.368 326.259 410.377 325.047 405.401 322.625C400.425 320.137 396.628 316.307 394.009 311.134C391.455 305.962 390.179 299.381 390.179 291.394C390.179 279.608 393.06 270.867 398.821 265.171C404.648 259.409 412.833 256.528 423.374 256.528C429.136 256.528 434.308 257.511 438.892 259.475C443.475 261.439 447.076 264.385 449.695 268.314C452.379 272.242 453.722 277.186 453.722 283.144H438.99C438.99 280.001 438.335 277.349 437.026 275.189C435.782 273.028 433.981 271.391 431.624 270.278C429.332 269.099 426.648 268.51 423.571 268.51C419.38 268.51 415.91 269.329 413.16 270.966C410.476 272.602 408.479 275.025 407.169 278.233C405.925 281.376 405.303 285.239 405.303 289.822V292.867C405.303 297.581 405.958 301.542 407.267 304.75C408.577 307.893 410.541 310.283 413.16 311.92C415.845 313.491 419.282 314.277 423.472 314.277C426.746 314.277 429.594 313.72 432.017 312.607C434.439 311.494 436.305 309.857 437.615 307.697C438.924 305.536 439.579 302.884 439.579 299.741H453.722C453.722 305.7 452.412 310.643 449.793 314.571C447.24 318.5 443.671 321.446 439.088 323.41C434.505 325.309 429.267 326.259 423.374 326.259ZM465.251 325.08V257.707H479.885V288.349L508.563 257.707H526.634L500.902 285.108L527.125 325.08H509.643L490.786 295.224L479.885 305.045V325.08H465.251ZM536.416 325.08V257.707H590.236V269.689H551.148V284.715H585.719V296.599H551.148V313H590.826V325.08H536.416ZM620.055 325.08V269.983H598.449V257.707H656.492V269.983H634.787V325.08H620.055Z" fill="#1C1B18"/>
<path d="M693.598 379.993H206.81C199.735 379.993 194 385.728 194 392.803V508.095C194 515.17 199.735 520.905 206.81 520.905H693.598C700.673 520.905 706.408 515.17 706.408 508.095V392.803C706.408 385.728 700.673 379.993 693.598 379.993Z" fill="#FF7900"/>
<path d="M349.211 483.073V415.7H363.844V470.6H397.825V483.073H349.211ZM407.236 483.073V415.7H421.87V483.073H407.236ZM462.999 484.251C459.07 484.251 455.338 483.858 451.803 483.073C448.267 482.287 445.124 481.043 442.374 479.341C439.69 477.573 437.562 475.38 435.991 472.761C434.485 470.076 433.732 466.835 433.732 463.038C433.732 462.71 433.732 462.383 433.732 462.055C433.732 461.663 433.764 461.368 433.83 461.172H448.365C448.3 461.368 448.267 461.63 448.267 461.957C448.267 462.285 448.267 462.579 448.267 462.841C448.267 464.936 448.824 466.704 449.937 468.145C451.115 469.585 452.817 470.665 455.044 471.386C457.27 472.106 459.856 472.466 462.802 472.466C464.701 472.466 466.371 472.368 467.811 472.171C469.317 471.909 470.627 471.582 471.74 471.189C472.918 470.731 473.867 470.207 474.588 469.618C475.373 469.028 475.93 468.341 476.257 467.555C476.65 466.77 476.847 465.886 476.847 464.904C476.847 463.136 476.257 461.695 475.079 460.582C473.966 459.469 472.394 458.52 470.365 457.734C468.4 456.948 466.174 456.228 463.686 455.574C461.198 454.919 458.645 454.264 456.026 453.609C453.407 452.889 450.853 452.038 448.365 451.056C445.877 450.008 443.651 448.764 441.687 447.324C439.723 445.883 438.151 444.05 436.973 441.824C435.794 439.598 435.205 436.913 435.205 433.771C435.205 430.431 435.892 427.55 437.267 425.128C438.708 422.705 440.705 420.708 443.258 419.137C445.812 417.566 448.758 416.42 452.097 415.7C455.436 414.914 459.07 414.521 462.999 414.521C466.665 414.521 470.135 414.914 473.409 415.7C476.683 416.42 479.564 417.598 482.052 419.235C484.54 420.872 486.471 422.935 487.846 425.423C489.287 427.911 490.007 430.857 490.007 434.262V435.44H475.766V434.654C475.766 432.887 475.242 431.381 474.195 430.137C473.147 428.893 471.674 427.911 469.775 427.19C467.877 426.47 465.65 426.11 463.097 426.11C460.347 426.11 457.99 426.372 456.026 426.896C454.127 427.42 452.654 428.205 451.606 429.253C450.624 430.235 450.133 431.413 450.133 432.788C450.133 434.36 450.69 435.669 451.803 436.717C452.981 437.699 454.553 438.583 456.517 439.369C458.546 440.089 460.805 440.744 463.293 441.333C465.781 441.922 468.335 442.577 470.954 443.297C473.573 444.017 476.126 444.868 478.614 445.851C481.102 446.833 483.329 448.077 485.293 449.583C487.257 451.023 488.828 452.824 490.007 454.984C491.185 457.145 491.775 459.731 491.775 462.743C491.775 467.915 490.531 472.073 488.043 475.216C485.555 478.359 482.15 480.65 477.829 482.091C473.507 483.531 468.564 484.251 462.999 484.251ZM520.031 483.073V427.976H498.425V415.7H556.468V427.976H534.763V483.073H520.031Z" fill="#1C1B18"/>
<path d="M693.598 537.985H206.81C199.735 537.985 194 543.721 194 550.796V666.087C194 673.162 199.735 678.898 206.81 678.898H693.598C700.673 678.898 706.408 673.162 706.408 666.087V550.796C706.408 543.721 700.673 537.985 693.598 537.985Z" fill="#1560BC"/>
<path d="M353.34 642.244C346.334 642.244 340.343 641.033 335.367 638.61C330.391 636.122 326.594 632.292 323.975 627.119C321.421 621.947 320.144 615.367 320.144 607.379C320.144 595.593 323.025 586.853 328.787 581.156C334.614 575.395 342.798 572.514 353.34 572.514C359.102 572.514 364.274 573.496 368.857 575.46C373.44 577.424 377.042 580.371 379.66 584.299C382.345 588.228 383.687 593.171 383.687 599.129H368.955C368.955 595.986 368.301 593.335 366.991 591.174C365.747 589.013 363.947 587.376 361.59 586.263C359.298 585.085 356.614 584.496 353.536 584.496C349.346 584.496 345.876 585.314 343.126 586.951C340.441 588.588 338.444 591.01 337.135 594.219C335.891 597.361 335.269 601.224 335.269 605.807V608.852C335.269 613.566 335.924 617.527 337.233 620.736C338.543 623.878 340.507 626.268 343.126 627.905C345.81 629.476 349.248 630.262 353.438 630.262C356.712 630.262 359.56 629.706 361.982 628.593C364.405 627.479 366.271 625.843 367.58 623.682C368.89 621.521 369.545 618.87 369.545 615.727H383.687C383.687 621.685 382.378 626.628 379.759 630.557C377.205 634.485 373.637 637.432 369.054 639.396C364.47 641.295 359.232 642.244 353.34 642.244ZM395.217 641.065V573.692H409.851V628.593H443.832V641.065H395.217ZM478.959 642.244C472.804 642.244 467.501 641.262 463.048 639.298C458.661 637.333 455.29 634.387 452.932 630.459C450.575 626.465 449.397 621.521 449.397 615.629V573.692H464.129V615.236C464.129 620.081 465.405 623.813 467.959 626.432C470.512 628.985 474.179 630.262 478.959 630.262C483.738 630.262 487.405 628.985 489.958 626.432C492.577 623.813 493.887 620.081 493.887 615.236V573.692H508.618V615.629C508.618 621.521 507.44 626.465 505.083 630.459C502.726 634.387 499.321 637.333 494.869 639.298C490.482 641.262 485.179 642.244 478.959 642.244ZM523.257 641.065V573.692H561.755C565.291 573.692 568.467 574.38 571.282 575.755C574.163 577.13 576.422 579.061 578.059 581.549C579.695 584.037 580.514 586.951 580.514 590.29C580.514 592.974 580.023 595.364 579.041 597.459C578.059 599.555 576.716 601.29 575.014 602.665C573.377 604.04 571.511 605.055 569.416 605.709V606.102C571.904 606.626 574.097 607.608 575.996 609.048C577.96 610.489 579.499 612.355 580.612 614.647C581.791 616.873 582.38 619.524 582.38 622.602C582.38 626.661 581.431 630.066 579.532 632.816C577.699 635.566 575.243 637.628 572.166 639.003C569.089 640.378 565.651 641.065 561.854 641.065H523.257ZM537.89 629.084H559.006C561.428 629.084 563.392 628.396 564.898 627.021C566.47 625.646 567.255 623.518 567.255 620.637C567.255 618.935 566.928 617.462 566.273 616.218C565.618 614.974 564.636 614.025 563.327 613.37C562.017 612.65 560.348 612.289 558.318 612.289H537.89V629.084ZM537.89 600.897H557.336C559.104 600.897 560.577 600.57 561.755 599.915C563 599.195 563.916 598.278 564.505 597.165C565.16 595.986 565.488 594.644 565.488 593.138C565.488 590.585 564.767 588.653 563.327 587.344C561.952 586.034 560.119 585.379 557.827 585.379H537.89V600.897Z" fill="white"/>
</svg>
